<mxfile host="app.diagrams.net" agent="Mozilla/5.0 (Windows NT 10.0; Win64; x64) AppleWebKit/537.36 (KHTML, like Gecko) Chrome/128.0.0.0 Safari/537.36" version="24.7.12">
  <diagram name="Seite-1" id="JdcZ9IIsimc7B1ibrZPB">
    <mxGraphModel dx="1050" dy="665" grid="1" gridSize="10" guides="1" tooltips="1" connect="1" arrows="1" fold="1" page="1" pageScale="1" pageWidth="827" pageHeight="1169" math="0" shadow="0">
      <root>
        <mxCell id="0" />
        <mxCell id="1" parent="0" />
        <mxCell id="YA5Pkg1dLdPAu8-3MR6u-3" style="edgeStyle=orthogonalEdgeStyle;rounded=0;orthogonalLoop=1;jettySize=auto;html=1;entryX=0.5;entryY=0;entryDx=0;entryDy=0;" edge="1" parent="1" source="YA5Pkg1dLdPAu8-3MR6u-1" target="YA5Pkg1dLdPAu8-3MR6u-2">
          <mxGeometry relative="1" as="geometry" />
        </mxCell>
        <mxCell id="YA5Pkg1dLdPAu8-3MR6u-1" value="No imge" style="ellipse;whiteSpace=wrap;html=1;" vertex="1" parent="1">
          <mxGeometry x="60" y="70" width="120" height="80" as="geometry" />
        </mxCell>
        <mxCell id="YA5Pkg1dLdPAu8-3MR6u-5" style="edgeStyle=orthogonalEdgeStyle;rounded=0;orthogonalLoop=1;jettySize=auto;html=1;exitX=1;exitY=0.5;exitDx=0;exitDy=0;" edge="1" parent="1" source="YA5Pkg1dLdPAu8-3MR6u-2" target="YA5Pkg1dLdPAu8-3MR6u-4">
          <mxGeometry relative="1" as="geometry">
            <Array as="points">
              <mxPoint x="270" y="330" />
              <mxPoint x="270" y="330" />
            </Array>
          </mxGeometry>
        </mxCell>
        <mxCell id="YA5Pkg1dLdPAu8-3MR6u-6" value="JA&lt;div&gt;&lt;br&gt;&lt;/div&gt;" style="edgeLabel;html=1;align=center;verticalAlign=middle;resizable=0;points=[];" vertex="1" connectable="0" parent="YA5Pkg1dLdPAu8-3MR6u-5">
          <mxGeometry x="-0.1309" relative="1" as="geometry">
            <mxPoint as="offset" />
          </mxGeometry>
        </mxCell>
        <mxCell id="YA5Pkg1dLdPAu8-3MR6u-9" style="edgeStyle=orthogonalEdgeStyle;rounded=0;orthogonalLoop=1;jettySize=auto;html=1;" edge="1" parent="1" source="YA5Pkg1dLdPAu8-3MR6u-2" target="YA5Pkg1dLdPAu8-3MR6u-7">
          <mxGeometry relative="1" as="geometry" />
        </mxCell>
        <mxCell id="YA5Pkg1dLdPAu8-3MR6u-11" value="Nein" style="edgeLabel;html=1;align=center;verticalAlign=middle;resizable=0;points=[];" vertex="1" connectable="0" parent="YA5Pkg1dLdPAu8-3MR6u-9">
          <mxGeometry x="0.112" y="4" relative="1" as="geometry">
            <mxPoint as="offset" />
          </mxGeometry>
        </mxCell>
        <mxCell id="YA5Pkg1dLdPAu8-3MR6u-2" value="Funktioniert monitor" style="rhombus;whiteSpace=wrap;html=1;" vertex="1" parent="1">
          <mxGeometry x="50" y="270" width="140" height="120" as="geometry" />
        </mxCell>
        <mxCell id="YA5Pkg1dLdPAu8-3MR6u-4" value="Monitor Funktioniert" style="ellipse;whiteSpace=wrap;html=1;" vertex="1" parent="1">
          <mxGeometry x="280" y="290" width="120" height="80" as="geometry" />
        </mxCell>
        <mxCell id="YA5Pkg1dLdPAu8-3MR6u-10" style="edgeStyle=orthogonalEdgeStyle;rounded=0;orthogonalLoop=1;jettySize=auto;html=1;" edge="1" parent="1" source="YA5Pkg1dLdPAu8-3MR6u-7" target="YA5Pkg1dLdPAu8-3MR6u-8">
          <mxGeometry relative="1" as="geometry" />
        </mxCell>
        <mxCell id="YA5Pkg1dLdPAu8-3MR6u-12" value="Ja" style="edgeLabel;html=1;align=center;verticalAlign=middle;resizable=0;points=[];" vertex="1" connectable="0" parent="YA5Pkg1dLdPAu8-3MR6u-10">
          <mxGeometry x="0.17" relative="1" as="geometry">
            <mxPoint as="offset" />
          </mxGeometry>
        </mxCell>
        <mxCell id="YA5Pkg1dLdPAu8-3MR6u-14" style="edgeStyle=orthogonalEdgeStyle;rounded=0;orthogonalLoop=1;jettySize=auto;html=1;exitX=1;exitY=0.5;exitDx=0;exitDy=0;" edge="1" parent="1" source="YA5Pkg1dLdPAu8-3MR6u-7" target="YA5Pkg1dLdPAu8-3MR6u-13">
          <mxGeometry relative="1" as="geometry" />
        </mxCell>
        <mxCell id="YA5Pkg1dLdPAu8-3MR6u-15" value="NEIN" style="edgeLabel;html=1;align=center;verticalAlign=middle;resizable=0;points=[];" vertex="1" connectable="0" parent="YA5Pkg1dLdPAu8-3MR6u-14">
          <mxGeometry x="0.09" y="-1" relative="1" as="geometry">
            <mxPoint as="offset" />
          </mxGeometry>
        </mxCell>
        <mxCell id="YA5Pkg1dLdPAu8-3MR6u-7" value="Hat strom?" style="rhombus;whiteSpace=wrap;html=1;" vertex="1" parent="1">
          <mxGeometry x="41" y="440" width="160" height="130" as="geometry" />
        </mxCell>
        <mxCell id="YA5Pkg1dLdPAu8-3MR6u-8" value="" style="rhombus;whiteSpace=wrap;html=1;" vertex="1" parent="1">
          <mxGeometry x="40" y="650" width="160" height="130" as="geometry" />
        </mxCell>
        <mxCell id="YA5Pkg1dLdPAu8-3MR6u-13" value="Strom an" style="ellipse;whiteSpace=wrap;html=1;" vertex="1" parent="1">
          <mxGeometry x="280" y="465" width="120" height="80" as="geometry" />
        </mxCell>
      </root>
    </mxGraphModel>
  </diagram>
</mxfile>
